HIERARCHY
ROOT Hips
{
	OFFSET -0.001795 -0.223333 0.028219
	CHANNELS 6 Xposition Yposition Zposition Zrotation Yrotation Xrotation 
	JOINT LeftUpLeg
	{
		OFFSET 0.069520 -0.091406 -0.006815
		CHANNELS 3 Zrotation Yrotation Xrotation
		JOINT LeftLeg
		{
			OFFSET 0.034277 -0.375199 -0.004496
			CHANNELS 3 Zrotation Yrotation Xrotation
			JOINT LeftFoot
			{
				OFFSET -0.013596 -0.397961 -0.043693
				CHANNELS 3 Zrotation Yrotation Xrotation
				JOINT LeftToe
				{
					OFFSET 0.026358 -0.055791 0.119288
					CHANNELS 3 Zrotation Yrotation Xrotation
					End Site
					{
						OFFSET 0.000000 0.000000 0.000000
					}
				}
			}
		}
	}
	JOINT RightUpLeg
	{
		OFFSET -0.067670 -0.090522 -0.004320
		CHANNELS 3 Zrotation Yrotation Xrotation
		JOINT RightLeg
		{
			OFFSET -0.038290 -0.382569 -0.008850
			CHANNELS 3 Zrotation Yrotation Xrotation
			JOINT RightFoot
			{
				OFFSET 0.015774 -0.398415 -0.042312
				CHANNELS 3 Zrotation Yrotation Xrotation
				JOINT RightToe
				{
					OFFSET -0.025372 -0.048144 0.123348
					CHANNELS 3 Zrotation Yrotation Xrotation
					End Site
					{
						OFFSET 0.000000 0.000000 0.000000
					}
				}
			}
		}
	}
	JOINT Spine
	{
		OFFSET -0.002533 0.108963 -0.026696
		CHANNELS 3 Zrotation Yrotation Xrotation
		JOINT Spine1
		{
			OFFSET 0.005487 0.135180 0.001092
			CHANNELS 3 Zrotation Yrotation Xrotation
			JOINT Spine2
			{
				OFFSET 0.001457 0.052922 0.025425
				CHANNELS 3 Zrotation Yrotation Xrotation
				JOINT Neck
				{
					OFFSET -0.002778 0.213870 -0.042857
					CHANNELS 3 Zrotation Yrotation Xrotation
					JOINT Head
					{
						OFFSET 0.005152 0.064970 0.051349
						CHANNELS 3 Zrotation Yrotation Xrotation
						End Site
						{
							OFFSET 0.000000 0.000000 0.000000
						}
					}
				}
				JOINT LeftShoulder
				{
					OFFSET 0.078845 0.121749 -0.034090
					CHANNELS 3 Zrotation Yrotation Xrotation
					JOINT LeftArm
					{
						OFFSET 0.090977 0.030469 -0.008868
						CHANNELS 3 Zrotation Yrotation Xrotation
						JOINT LeftForeArm
						{
							OFFSET 0.259612 -0.012772 -0.027456
							CHANNELS 3 Zrotation Yrotation Xrotation
							JOINT LeftHand
							{
								OFFSET 0.249234 0.008986 -0.001171
								CHANNELS 3 Zrotation Yrotation Xrotation
								End Site
								{
									OFFSET 0.000000 0.000000 0.000000
								}
							}
						}
					}
				}
				JOINT RightShoulder
				{
					OFFSET -0.081759 0.118833 -0.038615
					CHANNELS 3 Zrotation Yrotation Xrotation
					JOINT RightArm
					{
						OFFSET -0.096012 0.032551 -0.009143
						CHANNELS 3 Zrotation Yrotation Xrotation
						JOINT RightForeArm
						{
							OFFSET -0.253742 -0.013329 -0.021401
							CHANNELS 3 Zrotation Yrotation Xrotation
							JOINT RightHand
							{
								OFFSET -0.255298 0.007772 -0.005559
								CHANNELS 3 Zrotation Yrotation Xrotation
								End Site
								{
									OFFSET 0.000000 0.000000 0.000000
								}
							}
						}
					}
				}
			}
		}
	}
}
MOTION
Frames: 6
Frame Time: 0.050000
0.000000 0.956354 0.000000 -1.828488 1.298586 2.670645 6.510821 -0.002646 4.360019 -3.812063 0.401248 -6.864758 5.988061 14.528213 13.795724 0.000000 0.000000 0.000000 -3.144400 -0.084423 2.267660 3.301862 -0.397342 -3.758346 -5.700241 -15.770247 15.455346 0.000000 0.000000 0.000000 -2.444985 0.066543 -1.349109 3.797937 -0.351302 -22.851129 -0.669630 -0.564689 28.812906 0.364951 1.355338 -25.262773 0.000000 0.000000 0.000000 -22.502092 3.447498 -3.404958 -53.505676 -6.116889 -6.172636 -14.616781 -23.280946 4.270923 0.000000 0.000000 0.000000 14.186825 2.121243 0.463328 62.212867 4.043325 -6.666235 9.787899 25.100809 3.266448 0.000000 0.000000 0.000000 
0.000191 0.955765 0.000169 -1.963693 0.581218 2.983302 6.938312 -0.022102 4.229744 -4.125826 0.422453 -7.255352 6.714683 15.578313 14.045876 0.000000 0.000000 0.000000 -2.929836 -0.037772 1.625764 3.136832 -0.373210 -3.261169 -5.197404 -14.955590 15.036548 0.000000 0.000000 0.000000 -2.490200 0.099244 -2.806966 3.939221 -0.481729 -21.421989 -0.554995 -0.020368 28.561276 -0.165680 1.685795 -25.124292 0.000000 0.000000 0.000000 -22.964141 4.415549 -4.088325 -52.895849 -6.344279 -5.982648 -16.124833 -23.380129 4.603284 0.000000 0.000000 0.000000 13.747909 2.594377 0.715311 63.554535 3.596262 -6.980089 8.346297 26.588211 3.185997 0.000000 0.000000 0.000000 
0.000351 0.955547 0.000190 -1.603695 0.710435 3.081215 6.625951 -0.028012 3.568334 -4.600741 0.450741 -5.940435 6.471901 15.156301 13.358234 0.000000 0.000000 0.000000 -3.180961 -0.028841 1.651485 2.634602 -0.341048 -3.655494 -4.955392 -14.578617 15.558796 0.000000 0.000000 0.000000 -2.539733 0.109925 -3.403045 3.688825 -0.395094 -21.716858 -0.754223 -0.323974 29.324987 -0.294865 1.685587 -24.472339 0.000000 0.000000 0.000000 -22.794404 3.939559 -3.678695 -52.846145 -6.394952 -6.060501 -15.886114 -23.663774 4.632000 0.000000 0.000000 0.000000 14.228679 3.416763 1.078432 62.948881 3.502767 -7.066170 8.421812 26.385803 3.148567 0.000000 0.000000 0.000000 
0.000420 0.955552 0.000213 -1.633731 0.451977 3.293691 6.754007 -0.040333 3.344779 -4.742951 0.463157 -5.694374 6.891639 15.808588 13.821809 0.000000 0.000000 0.000000 -3.288313 0.002055 1.342688 3.025885 -0.363913 -3.333903 -5.273517 -15.195389 16.054162 0.000000 0.000000 0.000000 -2.753189 0.124204 -4.205399 3.898262 -0.463446 -21.565061 -0.743465 -0.348594 29.642792 -0.467085 1.747536 -24.246198 0.000000 0.000000 0.000000 -23.119641 4.707579 -4.124119 -52.749759 -6.649526 -5.969481 -16.735451 -23.255201 4.746048 0.000000 0.000000 0.000000 13.627608 3.641574 1.173072 63.410935 3.449440 -7.169121 8.830073 26.408010 3.239518 0.000000 0.000000 0.000000 
0.000407 0.955849 0.000156 -1.619041 0.897772 3.126130 6.724386 -0.045515 3.339884 -4.690319 0.454975 -5.656841 6.282646 14.939546 13.860295 0.000000 0.000000 0.000000 -3.239087 -0.026930 1.647276 2.688162 -0.345279 -3.600636 -5.079106 -14.813402 16.033780 0.000000 0.000000 0.000000 -2.744648 0.118312 -4.066889 4.117733 -0.542436 -21.087008 -1.078948 -0.413425 29.161586 -0.536224 1.801308 -23.695688 0.000000 0.000000 0.000000 -22.690726 4.521571 -4.043482 -52.992053 -6.539011 -5.966655 -17.188866 -23.787673 4.940925 0.000000 0.000000 0.000000 13.737696 3.467966 1.111209 63.218353 3.247191 -7.185672 9.480659 26.331225 3.369367 0.000000 0.000000 0.000000 
0.000447 0.956192 0.000084 -1.608142 1.109841 3.097970 6.829150 -0.058381 3.219705 -4.663273 0.451887 -5.519230 6.138971 14.756484 13.981433 0.000000 0.000000 0.000000 -3.282335 -0.044417 1.883794 2.605440 -0.340958 -3.627239 -4.931396 -14.576009 16.389460 0.000000 0.000000 0.000000 -3.034015 0.114514 -4.244144 4.337906 -0.576916 -21.441347 -1.053570 -0.610453 29.810063 -0.729744 1.915505 -23.913896 0.000000 0.000000 0.000000 -22.621517 4.783274 -4.152050 -53.214810 -6.892338 -5.906622 -17.366909 -23.755960 4.991003 0.000000 0.000000 0.000000 13.396850 3.511137 1.147286 63.279109 3.396205 -7.192135 9.473156 25.953246 3.316856 0.000000 0.000000 0.000000 
